<mxfile host="app.diagrams.net" modified="2023-02-04T00:29:07.283Z" agent="5.0 (Windows NT 10.0; Win64; x64) AppleWebKit/537.36 (KHTML, like Gecko) Chrome/107.0.0.0 Safari/537.36" etag="bSVX0v-d4oh_S--6EqXj" version="20.8.16" type="github">
  <diagram id="kgpKYQtTHZ0yAKxKKP6v" name="Page-1">
    <mxGraphModel dx="2071" dy="636" grid="1" gridSize="10" guides="1" tooltips="1" connect="1" arrows="1" fold="1" page="1" pageScale="1" pageWidth="850" pageHeight="1100" math="0" shadow="0">
      <root>
        <mxCell id="0" />
        <mxCell id="1" parent="0" />
        <mxCell id="3nuBFxr9cyL0pnOWT2aG-1" value="DeduplicationRuleService" style="shape=umlLifeline;perimeter=lifelinePerimeter;container=1;collapsible=0;recursiveResize=0;rounded=0;shadow=0;strokeWidth=1;" parent="1" vertex="1">
          <mxGeometry x="-145" y="150" width="140" height="640" as="geometry" />
        </mxCell>
        <mxCell id="3nuBFxr9cyL0pnOWT2aG-2" value="" style="points=[];perimeter=orthogonalPerimeter;rounded=0;shadow=0;strokeWidth=1;" parent="3nuBFxr9cyL0pnOWT2aG-1" vertex="1">
          <mxGeometry x="65" y="80" width="10" height="560" as="geometry" />
        </mxCell>
        <mxCell id="3nuBFxr9cyL0pnOWT2aG-3" value="dispatch&#xa;taskInfo" style="verticalAlign=bottom;startArrow=oval;endArrow=block;startSize=8;shadow=0;strokeWidth=1;" parent="3nuBFxr9cyL0pnOWT2aG-1" target="3nuBFxr9cyL0pnOWT2aG-2" edge="1">
          <mxGeometry relative="1" as="geometry">
            <mxPoint x="-65" y="80" as="sourcePoint" />
          </mxGeometry>
        </mxCell>
        <mxCell id="3nuBFxr9cyL0pnOWT2aG-5" value="ConfigService" style="shape=umlLifeline;perimeter=lifelinePerimeter;container=1;collapsible=0;recursiveResize=0;rounded=0;shadow=0;strokeWidth=1;" parent="1" vertex="1">
          <mxGeometry x="50" y="150" width="100" height="220" as="geometry" />
        </mxCell>
        <mxCell id="3nuBFxr9cyL0pnOWT2aG-6" value="" style="points=[];perimeter=orthogonalPerimeter;rounded=0;shadow=0;strokeWidth=1;" parent="3nuBFxr9cyL0pnOWT2aG-5" vertex="1">
          <mxGeometry x="45" y="80" width="10" height="140" as="geometry" />
        </mxCell>
        <mxCell id="_ZbJbGc3mUIkQsVLGUxy-18" value="" style="html=1;points=[];perimeter=orthogonalPerimeter;" vertex="1" parent="3nuBFxr9cyL0pnOWT2aG-5">
          <mxGeometry x="35" y="90" width="10" height="80" as="geometry" />
        </mxCell>
        <mxCell id="_ZbJbGc3mUIkQsVLGUxy-3" value="DeduplicationHolder" style="shape=umlLifeline;perimeter=lifelinePerimeter;container=1;collapsible=0;recursiveResize=0;rounded=0;shadow=0;strokeWidth=1;" vertex="1" parent="1">
          <mxGeometry x="210" y="150" width="120" height="640" as="geometry" />
        </mxCell>
        <mxCell id="_ZbJbGc3mUIkQsVLGUxy-4" value="" style="points=[];perimeter=orthogonalPerimeter;rounded=0;shadow=0;strokeWidth=1;" vertex="1" parent="_ZbJbGc3mUIkQsVLGUxy-3">
          <mxGeometry x="55" y="80" width="10" height="560" as="geometry" />
        </mxCell>
        <mxCell id="_ZbJbGc3mUIkQsVLGUxy-31" value="" style="html=1;points=[];perimeter=orthogonalPerimeter;" vertex="1" parent="_ZbJbGc3mUIkQsVLGUxy-3">
          <mxGeometry x="45" y="260" width="10" height="80" as="geometry" />
        </mxCell>
        <mxCell id="_ZbJbGc3mUIkQsVLGUxy-12" value="Builder" style="shape=umlLifeline;perimeter=lifelinePerimeter;container=1;collapsible=0;recursiveResize=0;rounded=0;shadow=0;strokeWidth=1;" vertex="1" parent="1">
          <mxGeometry x="420" y="150" width="120" height="520" as="geometry" />
        </mxCell>
        <mxCell id="_ZbJbGc3mUIkQsVLGUxy-13" value="" style="points=[];perimeter=orthogonalPerimeter;rounded=0;shadow=0;strokeWidth=1;" vertex="1" parent="_ZbJbGc3mUIkQsVLGUxy-12">
          <mxGeometry x="55" y="80" width="10" height="400" as="geometry" />
        </mxCell>
        <mxCell id="_ZbJbGc3mUIkQsVLGUxy-15" value="" style="html=1;points=[];perimeter=orthogonalPerimeter;" vertex="1" parent="_ZbJbGc3mUIkQsVLGUxy-12">
          <mxGeometry x="45" y="370" width="10" height="80" as="geometry" />
        </mxCell>
        <mxCell id="_ZbJbGc3mUIkQsVLGUxy-16" value="dispatch&lt;br&gt;select builder" style="html=1;verticalAlign=bottom;endArrow=block;entryX=0;entryY=0;rounded=0;" edge="1" target="_ZbJbGc3mUIkQsVLGUxy-15" parent="1">
          <mxGeometry x="0.0051" relative="1" as="geometry">
            <mxPoint x="270" y="520" as="sourcePoint" />
            <mxPoint as="offset" />
          </mxGeometry>
        </mxCell>
        <mxCell id="_ZbJbGc3mUIkQsVLGUxy-17" value="return&lt;br&gt;&amp;nbsp; &amp;nbsp;deduplicationParam(taskinfo)" style="html=1;verticalAlign=bottom;endArrow=open;dashed=1;endSize=8;exitX=0;exitY=0.95;rounded=0;" edge="1" source="_ZbJbGc3mUIkQsVLGUxy-15" parent="1">
          <mxGeometry relative="1" as="geometry">
            <mxPoint x="270" y="596" as="targetPoint" />
          </mxGeometry>
        </mxCell>
        <mxCell id="_ZbJbGc3mUIkQsVLGUxy-19" value="dispathch&amp;nbsp; &lt;br&gt;read config" style="html=1;verticalAlign=bottom;endArrow=block;entryX=0;entryY=0;rounded=0;" edge="1" target="_ZbJbGc3mUIkQsVLGUxy-18" parent="1">
          <mxGeometry relative="1" as="geometry">
            <mxPoint x="-70" y="240" as="sourcePoint" />
          </mxGeometry>
        </mxCell>
        <mxCell id="_ZbJbGc3mUIkQsVLGUxy-20" value="return&amp;nbsp; &lt;br&gt;JSON deduplicationConfig" style="html=1;verticalAlign=bottom;endArrow=open;dashed=1;endSize=8;exitX=0;exitY=0.95;rounded=0;" edge="1" source="_ZbJbGc3mUIkQsVLGUxy-18" parent="1">
          <mxGeometry relative="1" as="geometry">
            <mxPoint x="-70" y="316" as="targetPoint" />
          </mxGeometry>
        </mxCell>
        <mxCell id="_ZbJbGc3mUIkQsVLGUxy-22" value="Filter" style="shape=umlLifeline;perimeter=lifelinePerimeter;container=1;collapsible=0;recursiveResize=0;rounded=0;shadow=0;strokeWidth=1;" vertex="1" parent="1">
          <mxGeometry x="590" y="150" width="170" height="650" as="geometry" />
        </mxCell>
        <mxCell id="_ZbJbGc3mUIkQsVLGUxy-23" value="" style="points=[];perimeter=orthogonalPerimeter;rounded=0;shadow=0;strokeWidth=1;" vertex="1" parent="_ZbJbGc3mUIkQsVLGUxy-22">
          <mxGeometry x="55" y="80" width="10" height="570" as="geometry" />
        </mxCell>
        <mxCell id="_ZbJbGc3mUIkQsVLGUxy-37" value="" style="html=1;points=[];perimeter=orthogonalPerimeter;" vertex="1" parent="_ZbJbGc3mUIkQsVLGUxy-22">
          <mxGeometry x="45" y="520" width="10" height="80" as="geometry" />
        </mxCell>
        <mxCell id="_ZbJbGc3mUIkQsVLGUxy-40" value="taskinfo符合去重条件的接收者被剔除" style="shape=note;whiteSpace=wrap;html=1;backgroundOutline=1;darkOpacity=0.05;" vertex="1" parent="_ZbJbGc3mUIkQsVLGUxy-22">
          <mxGeometry x="90" y="510" width="80" height="100" as="geometry" />
        </mxCell>
        <mxCell id="_ZbJbGc3mUIkQsVLGUxy-32" value="dispatch&amp;nbsp; &lt;br&gt;&amp;nbsp;taskInfo+deduplicationConfig" style="html=1;verticalAlign=bottom;endArrow=block;entryX=0;entryY=0;rounded=0;" edge="1" target="_ZbJbGc3mUIkQsVLGUxy-31" parent="1">
          <mxGeometry x="0.0031" relative="1" as="geometry">
            <mxPoint x="-70" y="410" as="sourcePoint" />
            <mxPoint as="offset" />
          </mxGeometry>
        </mxCell>
        <mxCell id="_ZbJbGc3mUIkQsVLGUxy-38" value="dispatch&lt;br&gt;select filter+param" style="html=1;verticalAlign=bottom;endArrow=block;entryX=0;entryY=0;rounded=0;" edge="1" target="_ZbJbGc3mUIkQsVLGUxy-37" parent="1">
          <mxGeometry relative="1" as="geometry">
            <mxPoint x="270" y="670" as="sourcePoint" />
          </mxGeometry>
        </mxCell>
      </root>
    </mxGraphModel>
  </diagram>
</mxfile>
